<?xml version="1.0" encoding="UTF-8"?>
<svg xmlns="http://www.w3.org/2000/svg" viewBox="0 0 1024 1024" width="1024" height="1024">
  <rect width="1024" height="1024" fill="#558B2F"/>
  <g fill="#FDFCF8">
    <path transform="translate(-48.00,798.72) scale(0.560000,-0.560000)" d="M208 837C173 699 108 562 30 477C60 461 114 425 138 405C171 445 202 495 231 551H439V374H166V258H439V56H51V-61H955V56H565V258H865V374H565V551H904V668H565V850H439V668H284C303 714 319 761 332 809Z"/>
    <path transform="translate(512.00,798.72) scale(0.560000,-0.560000)" d="M115 762C172 715 246 648 280 604L361 691C325 734 247 797 192 840ZM38 541V422H184V120C184 75 152 42 129 27C149 1 179 -54 188 -85C207 -60 244 -32 446 115C434 140 415 191 408 226L306 154V541ZM607 845V534H367V409H607V-90H736V409H967V534H736V845Z"/>
  </g>
</svg>
